<svg width="16" height="16" viewBox="0 0 16 16" fill="none" xmlns="http://www.w3.org/2000/svg">
<path d="M1.33337 3.3335L6.00004 1.3335L10 3.3335L14.202 1.53283C14.2528 1.51109 14.3081 1.50228 14.3631 1.50719C14.418 1.51211 14.4709 1.53059 14.517 1.56099C14.563 1.59139 14.6008 1.63275 14.627 1.68136C14.6531 1.72997 14.6668 1.78431 14.6667 1.8395V12.6668L10 14.6668L6.00004 12.6668L1.79804 14.4675C1.74732 14.4892 1.69199 14.4981 1.63702 14.4931C1.58205 14.4882 1.52916 14.4697 1.4831 14.4393C1.43704 14.4089 1.39924 14.3676 1.37311 14.319C1.34698 14.2704 1.33333 14.216 1.33337 14.1608V3.3335ZM10.6667 12.9302L13.3334 11.7875V3.3555L10.6667 4.49816V12.9302ZM9.33337 12.8428V4.49083L6.66671 3.1575V11.5095L9.33337 12.8428ZM5.33337 11.5022V3.07016L2.66671 4.21283V12.6448L5.33337 11.5022Z" fill="#DDD740"/>
</svg>
