<svg width="33" height="32" viewBox="0 0 33 32" fill="none" xmlns="http://www.w3.org/2000/svg">
<path d="M8.50004 28.25H1.75003L1.75003 21.0185L1.75003 15.7041L1.75003 14.0521L2.49407 14.0535C3.46586 14.0552 4.79799 14.0573 6.15164 14.0586C8.82934 14.0614 11.6679 14.0619 11.8692 14.0488L11.8724 14.0486C12.2809 14.0202 12.6441 13.7719 12.9099 13.5555C13.2088 13.312 13.5401 12.9753 13.8995 12.5666C14.6072 11.7617 15.2945 10.911 15.9609 9.99252C16.8639 8.78861 17.5126 7.98877 17.9196 7.56444C18.2375 7.23297 18.493 6.7901 18.6843 6.31653C18.849 5.90864 18.9977 5.52776 19.0761 5.20096C19.1132 5.04607 19.159 4.83253 19.2143 4.57509C19.2551 4.3845 19.3012 4.16985 19.3527 3.93713L19.358 3.91312L19.3618 3.88881C19.4438 3.35408 19.5229 2.96852 19.5964 2.70029L19.6028 2.67686L19.6077 2.65306C19.6515 2.43989 19.7631 2.16121 19.9559 1.73686C20.1173 1.38166 20.3046 1.1054 20.488 0.914239C20.6072 0.789962 20.7097 0.75 20.852 0.75C21.4118 0.75 21.8778 0.810782 22.2673 0.934357C22.7142 1.07616 23.0359 1.22408 23.2661 1.38404C23.4966 1.54425 23.6994 1.75409 23.8568 1.99768C24.0608 2.33855 24.196 2.59234 24.2747 2.80554C24.3584 3.03244 24.4281 3.2998 24.4637 3.65285L24.4656 3.67139L24.4684 3.68981C24.5154 4.00064 24.5367 4.23859 24.5548 4.44238C24.5583 4.48161 24.5617 4.51957 24.5652 4.55655V4.55767V4.55898V4.5603V4.56161V4.56293V4.56425V4.56557V4.56689V4.56822V4.56954V4.57086V4.57219V4.57352V4.57484V4.57617V4.5775V4.57883V4.58016V4.5815V4.58283V4.58417V4.5855V4.58684V4.58818V4.58951V4.59086V4.5922V4.59354V4.59488V4.59623V4.59757V4.59892V4.60027V4.60161V4.60296V4.60431V4.60567V4.60702V4.60837V4.60973V4.61108V4.61244V4.6138V4.61516V4.61652V4.61788V4.61924V4.62061V4.62197V4.62334V4.6247V4.62607V4.62744V4.62881V4.63018V4.63155V4.63293V4.6343V4.63568V4.63705V4.63843V4.63981V4.64119V4.64257V4.64395V4.64534V4.64672V4.64811V4.64949V4.65088V4.65227V4.65366V4.65505V4.65644V4.65783V4.65923V4.66062V4.66202V4.66342V4.66482V4.66622V4.66762V4.66902V4.67042V4.67183V4.67323V4.67464V4.67604V4.67745V4.67886V4.68027V4.68169V4.6831V4.68451V4.68593V4.68734V4.68876V4.69018V4.6916V4.69302V4.69444V4.69587V4.69729V4.69872V4.70014V4.70157V4.703V4.70443V4.70586V4.70729V4.70873V4.71016V4.7116V4.71303V4.71447V4.71591V4.71735V4.71879V4.72024V4.72168V4.72312V4.72457V4.72602V4.72747V4.72892V4.73037V4.73182V4.73327V4.73472V4.73618V4.73764V4.73909V4.74055V4.74201V4.74347V4.74494V4.7464V4.74786V4.74933V4.7508V4.75226V4.75373V4.7552V4.75668V4.75815V4.75962V4.7611V4.76257V4.76405V4.76553V4.76701V4.76849V4.76997V4.77146V4.77294V4.77443V4.77591V4.7774V4.77889V4.78038V4.78187V4.78337V4.78486V4.78635V4.78785V4.78935V4.79085V4.79235V4.79385V4.79535V4.79685V4.79836V4.79987V4.80137V4.80288V4.80439V4.8059V4.80741V4.80893V4.81044V4.81196V4.81347V4.81499V4.81651V4.81803V4.81955V4.82108V4.8226V4.82412V4.82565V4.82718V4.82871V4.83024V4.83177V4.8333V4.83484V4.83637V4.83791V4.83944V4.84098V4.84252V4.84406V4.84561V4.84715V4.8487V4.85024V4.85179V4.85334V4.85489V4.85644V4.85799V4.85954V4.8611V4.86266V4.86421V4.86577V4.86733V4.86889V4.87045V4.87202V4.87358V4.87515V4.87672V4.87828V4.87985V4.88142V4.883V4.88457V4.88614V4.88772V4.8893V4.89088V4.89246V4.89404V4.89562V4.8972V4.89879V4.90037V4.90196V4.90355V4.90514V4.90673V4.90832V4.90992V4.91151V4.91311V4.91471V4.9163V4.9179V4.91951V4.92111V4.92271V4.92432V4.92592V4.92753V4.92914V4.93075V4.93236V4.93398V4.93559V4.9372V4.93882V4.94044V4.94206V4.94368V4.9453V4.94692V4.94855V4.95017V4.9518V4.95343V4.95506V4.95669V4.95832V4.95996V4.96159V4.96323V4.96486V4.9665V4.96814V4.96978V4.97143V4.97307V4.97472V4.97636V4.97801V4.97966V4.98131V4.98296V4.98462V4.98627V4.98793V4.98958V4.99124V4.9929V4.99456V4.99622V4.99789V4.99955V5.00122V5.00289V5.00456V5.00623V5.0079V5.00957V5.01125V5.01292V5.0146V5.01628V5.01796V5.01964V5.02132V5.023V5.02469V5.02637V5.02806V5.02975V5.03144V5.03313V5.03483V5.03652V5.03822V5.03991V5.04161V5.04331V5.04501V5.04671V5.04842V5.05012V5.05183V5.05354V5.05525V5.05696V5.05867V5.06038V5.0621V5.06381V5.06553V5.06725V5.06897V5.07069V5.07241V5.07414V5.07586V5.07759V5.07932V5.08105V5.08278V5.08451V5.08625V5.08798V5.08972V5.09146V5.0932V5.09494V5.09668V5.09842V5.10017V5.10191V5.10366V5.10541V5.10716V5.10891V5.11067V5.11242V5.11418V5.11593V5.11769V5.11945V5.12121V5.12298V5.12474V5.12651V5.12827V5.13004V5.13181V5.13358V5.13536V5.13713V5.13891V5.14068V5.14246V5.14424V5.14602V5.1478V5.14959V5.15137V5.15316V5.15495V5.15674V5.15853V5.16032V5.16211V5.16391V5.16571V5.1675V5.1693V5.1711V5.17291V5.17471V5.17652V5.17832V5.18013V5.18194V5.18375V5.18556V5.18738V5.18919V5.19101V5.19283V5.19465V5.19647V5.19829V5.20011V5.20194V5.20376V5.20559V5.20742V5.20925V5.21109V5.21292V5.21476V5.21659V5.21843V5.22027V5.22211V5.22395V5.2258V5.22764V5.22949V5.23134V5.23319V5.23504V5.23689V5.23875V5.2406V5.24246V5.24432V5.24618V5.24804V5.2499V5.25177V5.25363V5.2555V5.25737V5.25924V5.26111V5.26298V5.26486V5.26673V5.26861V5.27049V5.27237V5.27425V5.27614V5.27802V5.27991V5.2818V5.28369V5.28558V5.28747V5.28936V5.29126V5.29315V5.29505V5.29695V5.29885V5.30076V5.30266V5.30457V5.30647V5.30838V5.31029V5.3122V5.31412V5.31603V5.31795V5.31987V5.32179V5.32371V5.32563V5.32755V5.32948V5.3314V5.33333C24.5652 5.79952 24.5093 6.26759 24.3964 6.73869C24.2742 7.2481 24.1585 7.62312 24.0531 7.87945C23.9383 8.15875 23.7597 8.53242 23.5292 8.99113L23.5291 8.99107L23.5231 9.00352C23.512 9.02676 23.4985 9.05239 23.4743 9.09867C23.4688 9.10923 23.4627 9.12086 23.4559 9.13379C23.4226 9.19746 23.3812 9.2775 23.3337 9.37663C23.323 9.39888 23.3094 9.42624 23.2939 9.45734C23.2367 9.57206 23.1542 9.73765 23.1014 9.88533C23.0377 10.032 22.9825 10.2178 22.9453 10.3434C22.934 10.3815 22.9243 10.414 22.9166 10.4383L22.6038 11.4167H23.631H29.1678C29.9838 11.4167 30.6968 11.72 31.3213 12.371C31.9464 13.0227 32.2494 13.7809 32.2494 14.6612C32.2494 15.6851 31.9443 16.5639 31.3302 17.2956L31.0676 17.6085L31.1879 17.9988C31.3681 18.5831 31.4494 19.0276 31.4494 19.358V19.373L31.45 19.388C31.4854 20.2737 31.2404 21.0724 30.731 21.7682L30.5103 22.0698L30.6181 22.4277C30.8055 23.0494 30.8103 23.7382 30.6136 24.4468L30.61 24.4596L30.6069 24.4726C30.449 25.1311 30.1375 25.6656 29.7325 26.0703L29.487 26.3155L29.515 26.6614C29.6294 28.0729 29.3219 29.1194 28.6911 29.9027C28.0054 30.7383 26.9392 31.2292 25.3314 31.25H24.6204H23.1046H22.7678C21.9461 31.25 21.0514 31.1481 20.0378 30.9368C19.0061 30.7173 18.2275 30.5281 17.7087 30.3478L17.7087 30.3478L17.7008 30.3451C17.6397 30.3246 17.5764 30.3035 17.511 30.2816C16.9436 30.0919 16.2171 29.849 15.3223 29.5186L15.3171 29.5168C14.5653 29.2454 13.9632 28.9711 13.4714 28.7471C13.4473 28.7361 13.4235 28.7252 13.3999 28.7145C13.153 28.6021 12.9174 28.4957 12.7119 28.4167C12.5193 28.3428 12.2783 28.2623 12.0355 28.2508L12.0178 28.25H12H12H12H12H11.9999H11.9998H11.9998H11.9997H11.9996H11.9995H11.9994H11.9992H11.9991H11.9989H11.9988H11.9986H11.9984H11.9982H11.998H11.9978H11.9976H11.9973H11.9971H11.9968H11.9965H11.9962H11.9959H11.9956H11.9953H11.995H11.9947H11.9943H11.9939H11.9936H11.9932H11.9928H11.9924H11.992H11.9916H11.9911H11.9907H11.9902H11.9898H11.9893H11.9888H11.9883H11.9878H11.9873H11.9867H11.9862H11.9857H11.9851H11.9845H11.9839H11.9834H11.9828H11.9821H11.9815H11.9809H11.9803H11.9796H11.9789H11.9783H11.9776H11.9769H11.9762H11.9755H11.9748H11.974H11.9733H11.9725H11.9718H11.971H11.9702H11.9694H11.9686H11.9678H11.967H11.9662H11.9653H11.9645H11.9636H11.9628H11.9619H11.961H11.9601H11.9592H11.9583H11.9573H11.9564H11.9555H11.9545H11.9536H11.9526H11.9516H11.9506H11.9496H11.9486H11.9476H11.9466H11.9455H11.9445H11.9434H11.9423H11.9413H11.9402H11.9391H11.938H11.9369H11.9358H11.9346H11.9335H11.9324H11.9312H11.93H11.9289H11.9277H11.9265H11.9253H11.9241H11.9229H11.9216H11.9204H11.9192H11.9179H11.9167H11.9154H11.9141H11.9128H11.9115H11.9102H11.9089H11.9076H11.9063H11.9049H11.9036H11.9022H11.9009H11.8995H11.8981H11.8967H11.8953H11.8939H11.8925H11.8911H11.8897H11.8882H11.8868H11.8853H11.8839H11.8824H11.8809H11.8794H11.8779H11.8764H11.8749H11.8734H11.8719H11.8704H11.8688H11.8673H11.8657H11.8642H11.8626H11.861H11.8594H11.8578H11.8562H11.8546H11.853H11.8514H11.8497H11.8481H11.8464H11.8448H11.8431H11.8414H11.8398H11.8381H11.8364H11.8347H11.833H11.8313H11.8295H11.8278H11.8261H11.8243H11.8226H11.8208H11.819H11.8173H11.8155H11.8137H11.8119H11.8101H11.8083H11.8065H11.8046H11.8028H11.801H11.7991H11.7973H11.7954H11.7935H11.7917H11.7898H11.7879H11.786H11.7841H11.7822H11.7803H11.7784H11.7764H11.7745H11.7726H11.7706H11.7687H11.7667H11.7647H11.7628H11.7608H11.7588H11.7568H11.7548H11.7528H11.7508H11.7488H11.7467H11.7447H11.7427H11.7406H11.7386H11.7365H11.7345H11.7324H11.7303H11.7282H11.7261H11.7241H11.722H11.7198H11.7177H11.7156H11.7135H11.7114H11.7092H11.7071H11.7049H11.7028H11.7006H11.6985H11.6963H11.6941H11.6919H11.6897H11.6875H11.6853H11.6831H11.6809H11.6787H11.6765H11.6743H11.672H11.6698H11.6675H11.6653H11.663H11.6608H11.6585H11.6562H11.654H11.6517H11.6494H11.6471H11.6448H11.6425H11.6402H11.6379H11.6355H11.6332H11.6309H11.6285H11.6262H11.6239H11.6215H11.6192H11.6168H11.6144H11.6121H11.6097H11.6073H11.6049H11.6025H11.6001H11.5977H11.5953H11.5929H11.5905H11.5881H11.5856H11.5832H11.5808H11.5783H11.5759H11.5734H11.571H11.5685H11.5661H11.5636H11.5611H11.5587H11.5562H11.5537H11.5512H11.5487H11.5462H11.5437H11.5412H11.5387H11.5362H11.5337H11.5311H11.5286H11.5261H11.5235H11.521H11.5185H11.5159H11.5133H11.5108H11.5082H11.5057H11.5031H11.5005H11.4979H11.4954H11.4928H11.4902H11.4876H11.485H11.4824H11.4798H11.4772H11.4746H11.472H11.4693H11.4667H11.4641H11.4615H11.4588H11.4562H11.4535H11.4509H11.4482H11.4456H11.4429H11.4403H11.4376H11.4349H11.4323H11.4296H11.4269H11.4242H11.4216H11.4189H11.4162H11.4135H11.4108H11.4081H11.4054H11.4027H11.4H11.3973H11.3946H11.3918H11.3891H11.3864H11.3837H11.3809H11.3782H11.3755H11.3727H11.37H11.3672H11.3645H11.3617H11.359H11.3562H11.3535H11.3507H11.3479H11.3452H11.3424H11.3396H11.3369H11.3341H11.3313H11.3285H11.3257H11.3229H11.3201H11.3174H11.3146H11.3118H11.309H11.3062H11.3034H11.3005H11.2977H11.2949H11.2921H11.2893H11.2865H11.2836H11.2808H11.278H11.2752H11.2723H11.2695H11.2667H11.2638H11.261H11.2582H11.2553H11.2525H11.2496H11.2468H11.2439H11.2411H11.2382H11.2354H11.2325H11.2297H11.2268H11.2239H11.2211H11.2182H11.2153H11.2125H11.2096H11.2067H11.2038H11.201H11.1981H11.1952H11.1923H11.1895H11.1866H11.1837H11.1808H11.1779H11.175H11.1721H11.1692H11.1663H11.1635H11.1606H11.1577H11.1548H11.1519H11.149H11.1461H11.1432H11.1403H11.1374H11.1344H11.1315H11.1286H11.1257H11.1228H11.1199H11.117H11.1141H11.1112H11.1083H11.1053H11.1024H11.0995H11.0966H11.0937H11.0908H11.0878H11.0849H11.082H11.0791H11.0762H11.0732H11.0703H11.0674H11.0645H11.0615H11.0586H11.0557H11.0528H11.0498H11.0469H11.044H11.0411H11.0381H11.0352H11.0323H11.0293H11.0264H11.0235H11.0206H11.0176H11.0147H11.0118H11.0088H11.0059H11.003H11H8.50004Z" fill="white" stroke="#333333" stroke-width="1.5"/>
</svg>
