<svg width="36" height="36" viewBox="0 0 36 36" fill="none" xmlns="http://www.w3.org/2000/svg">
<path fill-rule="evenodd" clip-rule="evenodd" d="M30.5 17.2466V22C30.5 28.9036 24.9036 34.5 18 34.5C11.0964 34.5 5.5 28.9036 5.5 22V18.2462C9.66549 18.1791 13.6524 17.26 16.9425 14.8557C17.7643 14.2552 18.5372 13.566 19.2551 12.7807C21.1742 14.4358 22.8114 15.5576 24.6008 16.2606C26.3477 16.9469 28.1888 17.2141 30.5 17.2466ZM30.5 15.7464V14C30.5 9.28486 27.8893 5.17947 24.0346 3.05049C23.1902 6.61167 21.8849 9.43252 20.2156 11.6283C22.0834 13.241 23.5773 14.2469 25.1493 14.8644C26.6653 15.46 28.3043 15.7141 30.5 15.7464ZM18 1.5C19.6423 1.5 21.2107 1.81673 22.6473 2.39244C21.392 7.93998 19.0285 11.4735 16.0575 13.6446C13.1029 15.8037 9.46085 16.679 5.5 16.746V14C5.5 7.09644 11.0964 1.5 18 1.5ZM4 14C4 6.26801 10.268 0 18 0C25.732 0 32 6.26801 32 14V22C32 29.732 25.732 36 18 36C10.268 36 4 29.732 4 22V14ZM11.416 21.876C11.0713 21.6463 10.6057 21.7394 10.3759 22.0841C10.1462 22.4287 10.2393 22.8944 10.5839 23.1241C11.4319 23.6894 12.3242 24.0001 13.25 24.0001C14.1757 24.0001 15.068 23.6894 15.916 23.1241C16.2606 22.8944 16.3538 22.4287 16.124 22.0841C15.8942 21.7394 15.4286 21.6463 15.0839 21.876C14.4319 22.3107 13.8242 22.5001 13.25 22.5001C12.6757 22.5001 12.068 22.3107 11.416 21.876ZM20.3759 22.0841C20.6057 21.7394 21.0713 21.6463 21.416 21.876C22.068 22.3107 22.6757 22.5001 23.25 22.5001C23.8242 22.5001 24.4319 22.3107 25.0839 21.876C25.4286 21.6463 25.8942 21.7394 26.124 22.0841C26.3538 22.4287 26.2606 22.8944 25.916 23.1241C25.068 23.6894 24.1757 24.0001 23.25 24.0001C22.3242 24.0001 21.4319 23.6894 20.5839 23.1241C20.2393 22.8944 20.1462 22.4287 20.3759 22.0841ZM14.5303 28.4697C14.2374 28.1768 13.7626 28.1768 13.4697 28.4697C13.1768 28.7626 13.1768 29.2374 13.4697 29.5303C14.6421 30.7028 16.3511 31.25 18 31.25C19.6489 31.25 21.3578 30.7028 22.5303 29.5303C22.8232 29.2374 22.8232 28.7626 22.5303 28.4697C22.2374 28.1768 21.7626 28.1768 21.4697 28.4697C20.6421 29.2972 19.3511 29.75 18 29.75C16.6489 29.75 15.3579 29.2972 14.5303 28.4697Z" fill="#333333"/>
<path d="M0.75 1H7.12168V8.30635C7.99779 9.10605 9.75 11.3089 9.75 13.7225V19.7929C9.65708 20.3867 9.13673 21.5741 7.79867 21.5741C7.1704 21.5741 6.72241 21.3123 6.41429 20.9731L9.11283 26.5904C9.32522 27.0266 9.43938 28.0662 8.1969 28.735C6.95442 29.4039 5.92699 28.6502 5.56858 28.1898L0.75 19.2113V1Z" fill="white"/>
<path fill-rule="evenodd" clip-rule="evenodd" d="M0 0.25H7.87168V7.9881C8.33774 8.46028 8.91867 9.17284 9.41457 10.0354C10.0008 11.055 10.5 12.3396 10.5 13.7225V19.8513L10.491 19.9089C10.4274 20.3151 10.228 20.8932 9.81763 21.3861C9.40314 21.8839 8.7688 22.2945 7.89463 22.3226L9.78715 26.2621C9.78748 26.2627 9.78781 26.2634 9.78814 26.2641C9.96103 26.6204 10.0762 27.1691 9.92774 27.7586C9.7711 28.3807 9.34026 28.9713 8.5524 29.3954C7.72787 29.8393 6.93814 29.8193 6.30012 29.5926C5.68997 29.3758 5.23089 28.977 4.97675 28.6505L4.93776 28.6004L0 19.3999V0.25ZM6.59735 19.6221V15.3582C6.59735 14.944 6.26156 14.6082 5.84735 14.6082C5.43313 14.6082 5.09735 14.944 5.09735 15.3582V19.8513L5.10637 19.9089C5.16956 20.3127 5.36845 20.8934 5.78186 21.3886L8.4368 26.9152L8.43852 26.9187C8.47746 26.9987 8.52488 27.1869 8.47314 27.3924C8.42935 27.5663 8.29602 27.8299 7.8414 28.0746C7.42345 28.2996 7.07823 28.2772 6.80232 28.1792C6.52824 28.0818 6.3111 27.9028 6.19468 27.7704L1.5 19.0228V1.75H6.37168V8.63722L6.61606 8.86028C6.9984 9.20928 7.60622 9.89952 8.11419 10.783C8.6231 11.6682 9 12.6917 9 13.7225V19.7266C8.96101 19.9164 8.85505 20.1979 8.66489 20.4263C8.47648 20.6526 8.21284 20.8241 7.79867 20.8241C7.45285 20.8241 7.2147 20.7049 7.03733 20.538L6.59735 19.6221Z" fill="#333333"/>
<path d="M35 1H28.6283V8.30635C27.7522 9.10605 26 11.3089 26 13.7225V19.7929C26.0929 20.3867 26.6133 21.5741 27.9513 21.5741C28.5796 21.5741 29.0276 21.3123 29.3357 20.9731L26.6372 26.5904C26.4248 27.0266 26.3106 28.0662 27.5531 28.735C28.7956 29.4039 29.823 28.6502 30.1814 28.1898L35 19.2113V1Z" fill="white"/>
<path fill-rule="evenodd" clip-rule="evenodd" d="M36 0.25H28.1283V7.9881C27.6623 8.46028 27.0813 9.17284 26.5854 10.0354C25.9992 11.055 25.5 12.3396 25.5 13.7225V19.8513L25.509 19.9089C25.5726 20.3151 25.772 20.8932 26.1824 21.3861C26.5969 21.8839 27.2312 22.2945 28.1054 22.3226L26.2129 26.2621C26.2125 26.2627 26.2122 26.2634 26.2119 26.2641C26.039 26.6204 25.9238 27.1691 26.0723 27.7586C26.2289 28.3807 26.6597 28.9713 27.4476 29.3954C28.2721 29.8393 29.0619 29.8193 29.6999 29.5926C30.31 29.3758 30.7691 28.977 31.0232 28.6505L31.0622 28.6004L36 19.3999V0.25ZM29.4027 19.6221V15.3582C29.4027 14.944 29.7384 14.6082 30.1527 14.6082C30.5669 14.6082 30.9027 14.944 30.9027 15.3582V19.8513L30.8936 19.9089C30.8304 20.3127 30.6315 20.8934 30.2181 21.3886L27.5632 26.9152L27.5615 26.9187C27.5225 26.9987 27.4751 27.1869 27.5269 27.3924C27.5707 27.5663 27.704 27.8299 28.1586 28.0746C28.5765 28.2996 28.9218 28.2772 29.1977 28.1792C29.4718 28.0818 29.6889 27.9028 29.8053 27.7704L34.5 19.0228V1.75H29.6283V8.63722L29.3839 8.86028C29.0016 9.20928 28.3938 9.89952 27.8858 10.783C27.3769 11.6682 27 12.6917 27 13.7225V19.7266C27.039 19.9164 27.145 20.1979 27.3351 20.4263C27.5235 20.6526 27.7872 20.8241 28.2013 20.8241C28.5471 20.8241 28.7853 20.7049 28.9627 20.538L29.4027 19.6221Z" fill="#333333"/>
</svg>
