<svg width="33" height="36" viewBox="0 0 33 36" fill="none" xmlns="http://www.w3.org/2000/svg">
<path d="M15.2543 27.9201L15.25 27.9599V28V34C15.25 34.6904 14.6904 35.25 14 35.25H5C4.30964 35.25 3.75 34.6904 3.75 34V28V27.9599L3.74573 27.9201L0.982846 2.13316C0.903686 1.39434 1.48268 0.75 2.22573 0.75H16.7743C17.5173 0.75 18.0963 1.39434 18.0172 2.13317L15.2543 27.9201Z" stroke="#333333" stroke-width="1.5"/>
<rect x="1" y="3" width="17" height="1.5" fill="#333333"/>
<rect x="4" y="27.5" width="11" height="1.5" fill="#333333"/>
<path d="M11.75 21C11.75 20.3096 12.3096 19.75 13 19.75H31C31.6904 19.75 32.25 20.3096 32.25 21V32C32.25 33.7949 30.7949 35.25 29 35.25H15C13.2051 35.25 11.75 33.7949 11.75 32V21Z" fill="white" stroke="#333333" stroke-width="1.5"/>
<rect x="12" y="24.5" width="20" height="1.5" fill="#333333"/>
</svg>
