<svg width="36" height="36" viewBox="0 0 36 36" fill="none" xmlns="http://www.w3.org/2000/svg">
<path fill-rule="evenodd" clip-rule="evenodd" d="M26.5 17.2466V22C26.5 28.9036 20.9036 34.5 14 34.5C7.09644 34.5 1.5 28.9036 1.5 22V18.2462C5.66549 18.1791 9.65242 17.26 12.9425 14.8557C13.7643 14.2552 14.5372 13.566 15.2551 12.7807C17.1742 14.4358 18.8114 15.5576 20.6008 16.2606C22.3477 16.9469 24.1888 17.2141 26.5 17.2466ZM26.5 15.7464V14C26.5 9.28486 23.8893 5.17947 20.0346 3.05049C19.1902 6.61167 17.8849 9.43252 16.2156 11.6283C18.0834 13.241 19.5773 14.2469 21.1493 14.8644C22.6653 15.46 24.3043 15.7141 26.5 15.7464ZM14 1.5C15.6423 1.5 17.2107 1.81673 18.6473 2.39244C17.392 7.93998 15.0285 11.4735 12.0575 13.6446C9.10291 15.8037 5.46085 16.679 1.5 16.746V14C1.5 7.09644 7.09644 1.5 14 1.5ZM0 14C0 6.26801 6.26801 0 14 0C21.732 0 28 6.26801 28 14V22C28 29.732 21.732 36 14 36C6.26801 36 0 29.732 0 22V14ZM7.41598 21.876C7.07134 21.6463 6.60568 21.7394 6.37592 22.0841C6.14616 22.4287 6.23929 22.8944 6.58393 23.1241C7.43191 23.6894 8.32423 24.0001 9.24996 24.0001C10.1757 24.0001 11.068 23.6894 11.916 23.1241C12.2606 22.8944 12.3538 22.4287 12.124 22.0841C11.8942 21.7394 11.4286 21.6463 11.0839 21.876C10.4319 22.3107 9.82423 22.5001 9.24996 22.5001C8.67569 22.5001 8.06801 22.3107 7.41598 21.876ZM16.3759 22.0841C16.6057 21.7394 17.0713 21.6463 17.416 21.876C18.068 22.3107 18.6757 22.5001 19.25 22.5001C19.8242 22.5001 20.4319 22.3107 21.0839 21.876C21.4286 21.6463 21.8942 21.7394 22.124 22.0841C22.3538 22.4287 22.2606 22.8944 21.916 23.1241C21.068 23.6894 20.1757 24.0001 19.25 24.0001C18.3242 24.0001 17.4319 23.6894 16.5839 23.1241C16.2393 22.8944 16.1462 22.4287 16.3759 22.0841ZM10.5303 28.4697C10.2374 28.1768 9.76256 28.1768 9.46967 28.4697C9.17678 28.7626 9.17678 29.2374 9.46967 29.5303C10.6421 30.7028 12.3511 31.25 14 31.25C15.6489 31.25 17.3578 30.7028 18.5303 29.5303C18.8232 29.2374 18.8232 28.7626 18.5303 28.4697C18.2374 28.1768 17.7626 28.1768 17.4697 28.4697C16.6421 29.2972 15.3511 29.75 14 29.75C12.6489 29.75 11.3579 29.2972 10.5303 28.4697Z" fill="#333333"/>
<mask id="path-2-inside-1_109_335" fill="white">
<path fill-rule="evenodd" clip-rule="evenodd" d="M33.5408 26.4799C35.0611 24.9442 36 22.8317 36 20.5C36 15.8056 32.1944 12 27.5 12C22.8056 12 19 15.8056 19 20.5C19 25.1944 22.8056 29 27.5 29C29.3211 29 31.0084 28.4273 32.3918 27.4522L34.6943 29.7547C34.9872 30.0476 35.462 30.0476 35.7549 29.7547C36.0478 29.4618 36.0478 28.9869 35.7549 28.694L33.5408 26.4799Z"/>
</mask>
<path fill-rule="evenodd" clip-rule="evenodd" d="M33.5408 26.4799C35.0611 24.9442 36 22.8317 36 20.5C36 15.8056 32.1944 12 27.5 12C22.8056 12 19 15.8056 19 20.5C19 25.1944 22.8056 29 27.5 29C29.3211 29 31.0084 28.4273 32.3918 27.4522L34.6943 29.7547C34.9872 30.0476 35.462 30.0476 35.7549 29.7547C36.0478 29.4618 36.0478 28.9869 35.7549 28.694L33.5408 26.4799Z" fill="white"/>
<path d="M33.5408 26.4799L32.4748 25.4246L31.4248 26.4852L32.4801 27.5405L33.5408 26.4799ZM32.3918 27.4522L33.4524 26.3915L32.5596 25.4987L31.5275 26.2262L32.3918 27.4522ZM34.6943 29.7547L33.6336 30.8154L33.6336 30.8154L34.6943 29.7547ZM35.7549 28.694L34.6943 29.7547L34.6943 29.7547L35.7549 28.694ZM34.5 20.5C34.5 22.4207 33.7284 24.1583 32.4748 25.4246L34.6068 27.5352C36.3938 25.73 37.5 23.2427 37.5 20.5H34.5ZM27.5 13.5C31.366 13.5 34.5 16.634 34.5 20.5H37.5C37.5 14.9772 33.0228 10.5 27.5 10.5V13.5ZM20.5 20.5C20.5 16.634 23.634 13.5 27.5 13.5V10.5C21.9772 10.5 17.5 14.9772 17.5 20.5H20.5ZM27.5 27.5C23.634 27.5 20.5 24.366 20.5 20.5H17.5C17.5 26.0228 21.9772 30.5 27.5 30.5V27.5ZM31.5275 26.2262C30.3889 27.0288 29.0017 27.5 27.5 27.5V30.5C29.6405 30.5 31.628 29.8258 33.256 28.6782L31.5275 26.2262ZM35.7549 28.694L33.4524 26.3915L31.3311 28.5128L33.6336 30.8154L35.7549 28.694ZM34.6943 28.694C34.9872 28.4011 35.462 28.4012 35.7549 28.694L33.6336 30.8154C34.5123 31.694 35.9369 31.694 36.8156 30.8154L34.6943 28.694ZM34.6943 29.7547C34.4014 29.4618 34.4014 28.9869 34.6943 28.694L36.8156 30.8154C37.6943 29.9367 37.6943 28.5121 36.8156 27.6334L34.6943 29.7547ZM32.4801 27.5405L34.6943 29.7547L36.8156 27.6334L34.6014 25.4192L32.4801 27.5405Z" fill="#333333" mask="url(#path-2-inside-1_109_335)"/>
<path d="M25 20.7002L27 22.7002L31 18.7002" stroke="#333333" stroke-width="1.5" stroke-linecap="round" stroke-linejoin="round"/>
</svg>
