<svg width="16" height="16" viewBox="0 0 16 16" fill="none" xmlns="http://www.w3.org/2000/svg">
<path d="M12.6667 13.3332H3.33337V13.9998C3.33337 14.1766 3.26314 14.3462 3.13811 14.4712C3.01309 14.5963 2.84352 14.6665 2.66671 14.6665H2.00004C1.82323 14.6665 1.65366 14.5963 1.52864 14.4712C1.40361 14.3462 1.33337 14.1766 1.33337 13.9998V7.33317L2.98671 3.4745C3.08959 3.2345 3.26068 3.03 3.47874 2.88636C3.69681 2.74272 3.95225 2.66627 4.21337 2.6665H11.7867C12.0476 2.66653 12.3028 2.7431 12.5206 2.88672C12.7384 3.03035 12.9092 3.23471 13.012 3.4745L14.6667 7.33317V13.9998C14.6667 14.1766 14.5965 14.3462 14.4714 14.4712C14.3464 14.5963 14.1769 14.6665 14 14.6665H13.3334C13.1566 14.6665 12.987 14.5963 12.862 14.4712C12.7369 14.3462 12.6667 14.1766 12.6667 13.9998V13.3332ZM13.3334 8.6665H2.66671V11.9998H13.3334V8.6665ZM2.78404 7.33317H13.216L11.7874 3.99984H4.21337L2.78471 7.33317H2.78404ZM4.33337 11.3332C4.06816 11.3332 3.8138 11.2278 3.62627 11.0403C3.43873 10.8527 3.33337 10.5984 3.33337 10.3332C3.33337 10.068 3.43873 9.8136 3.62627 9.62606C3.8138 9.43853 4.06816 9.33317 4.33337 9.33317C4.59859 9.33317 4.85294 9.43853 5.04048 9.62606C5.22802 9.8136 5.33337 10.068 5.33337 10.3332C5.33337 10.5984 5.22802 10.8527 5.04048 11.0403C4.85294 11.2278 4.59859 11.3332 4.33337 11.3332ZM11.6667 11.3332C11.4015 11.3332 11.1471 11.2278 10.9596 11.0403C10.7721 10.8527 10.6667 10.5984 10.6667 10.3332C10.6667 10.068 10.7721 9.8136 10.9596 9.62606C11.1471 9.43853 11.4015 9.33317 11.6667 9.33317C11.9319 9.33317 12.1863 9.43853 12.3738 9.62606C12.5613 9.8136 12.6667 10.068 12.6667 10.3332C12.6667 10.5984 12.5613 10.8527 12.3738 11.0403C12.1863 11.2278 11.9319 11.3332 11.6667 11.3332Z" fill="#DDD740"/>
</svg>
