<svg width="68" height="18" viewBox="0 0 68 18" fill="none" xmlns="http://www.w3.org/2000/svg">
<path d="M65.116 4.48269L64.3188 4.11556L64.9841 2.71787L63.3972 2.85198L63.3218 1.98937L64.8889 1.85695L63.9771 0.571593L64.6988 0.0761158L65.6221 1.37754L66.2778 0L67.0749 0.367127L66.4277 1.72692L67.9247 1.60042L68 2.46302L66.4832 2.5912L67.3427 3.80273L66.6209 4.2982L65.7728 3.10275L65.116 4.48269Z" fill="white"/>
<path d="M15.3827 4.04865C15.561 3.78621 15.6561 3.47765 15.6561 3.16201C15.6641 2.95033 15.6275 2.73931 15.5488 2.54214C15.4701 2.34498 15.3509 2.1659 15.1986 2.01612C15.0464 1.86634 14.8643 1.74906 14.6639 1.67163C14.4634 1.5942 14.2489 1.55827 14.0337 1.5661C13.7128 1.5661 13.3992 1.6597 13.1324 1.83506C12.8656 2.01042 12.6576 2.25967 12.5348 2.55128C12.412 2.8429 12.3799 3.16378 12.4425 3.47336C12.5051 3.78294 12.6596 4.0673 12.8865 4.29049C13.1134 4.51369 13.4025 4.66568 13.7172 4.72726C14.0319 4.78884 14.3581 4.75723 14.6546 4.63644C14.951 4.51565 15.2044 4.3111 15.3827 4.04865Z" fill="white"/>
<path d="M12.7196 14.2855H15.36V5.69552H12.7196V14.2855Z" fill="white"/>
<path fill-rule="evenodd" clip-rule="evenodd" d="M4.68872 2.36007H0V14.2576H4.68872C8.7001 14.2576 11.1783 11.8358 11.1783 8.31681C11.1783 4.79783 8.69604 2.36007 4.68872 2.36007ZM8.47296 8.31681C8.47296 10.6069 7.04931 11.9076 4.73334 11.9076H2.70534V4.72601H4.73334C7.04931 4.72601 8.47296 6.02668 8.47296 8.31681Z" fill="white"/>
<path d="M17.6476 5.69552H20.2881V6.56928C20.5729 6.2073 20.9438 5.91973 21.3682 5.73188C21.7925 5.54403 22.2573 5.46167 22.7216 5.49205C24.7496 5.49205 26.1206 6.93635 26.1206 9.30228V14.2496H23.4801V9.74515C23.4801 8.44847 22.9447 7.75026 21.951 7.75026C20.9573 7.75026 20.2881 8.54821 20.2881 9.88479V14.2735H17.6476V5.69552Z" fill="white"/>
<path fill-rule="evenodd" clip-rule="evenodd" d="M31.0202 14.9279H28.3473C28.6312 16.5796 30.0833 18 32.6588 18C35.2344 18 37.1204 16.3961 37.1204 14.0741V5.69553H34.48V6.57727C34.1838 6.21259 33.8021 5.92405 33.3676 5.73642C32.9331 5.54879 32.4589 5.46767 31.9855 5.50003C29.4749 5.50003 27.7551 7.39916 27.7551 9.90873C27.7551 12.4183 29.4911 14.2416 31.9855 14.2416C32.4589 14.274 32.9331 14.1929 33.3676 14.0052C33.8021 13.8176 34.1838 13.5291 34.48 13.1644V14.0741C34.4909 14.3121 34.4505 14.5497 34.3613 14.7713C34.2722 14.9928 34.1364 15.1933 33.9628 15.3595C33.7892 15.5257 33.5818 15.6539 33.3543 15.7356C33.1268 15.8173 32.8842 15.8507 32.6426 15.8336C31.657 15.8336 31.154 15.4825 31.0202 14.9279ZM32.3992 7.71834C33.7134 7.71834 34.5246 8.63599 34.5246 9.90873C34.5246 11.1775 33.6485 12.0991 32.3992 12.0991C31.15 12.0991 30.3388 11.1815 30.3388 9.90873C30.3388 8.63599 31.0851 7.71834 32.3992 7.71834Z" fill="white"/>
<path d="M42.0484 14.2576H39.408V1.99701H42.0484V14.2576Z" fill="white"/>
<path fill-rule="evenodd" clip-rule="evenodd" d="M48.4163 5.50002C45.7597 5.50002 43.8898 7.38319 43.8898 9.98054C43.8898 12.5938 45.7597 14.473 48.4285 14.4611C50.5376 14.4611 52.2411 13.3399 52.6873 11.7041H50.0306C49.7873 12.1111 49.1667 12.3744 48.4082 12.3744C47.9512 12.3935 47.5033 12.2442 47.1523 11.9557C46.8012 11.6672 46.5722 11.2602 46.51 10.8144H52.882C52.9223 10.5382 52.9426 10.2596 52.9428 9.98054C52.9428 7.36724 51.073 5.50002 48.4163 5.50002ZM49.7228 7.97125C50.0832 8.26359 50.3178 8.67924 50.3794 9.13471H46.51C46.5651 8.67938 46.7956 8.26217 47.154 7.96899C47.5124 7.67581 47.9714 7.52898 48.4366 7.55874C48.9029 7.53155 49.3624 7.67892 49.7228 7.97125Z" fill="white"/>
<path d="M62.9165 5.69553L57.9155 17.8205H55.3196L56.8933 14.0262L53.462 5.69553H56.3863L58.2724 10.986L60.1706 5.69553H62.9165Z" fill="white"/>
</svg>
