<svg width="13" height="13" viewBox="0 0 13 13" fill="none" xmlns="http://www.w3.org/2000/svg">
<path fill-rule="evenodd" clip-rule="evenodd" d="M6.5 13C10.0899 13 13 10.0899 13 6.5C13 2.91015 10.0899 0 6.5 0C2.91015 0 0 2.91015 0 6.5C0 10.0899 2.91015 13 6.5 13ZM8.06223 4.60199C8.10692 4.57517 8.14565 4.529 8.17842 4.46346L8.47335 3.89592C8.24694 3.68142 7.97285 3.51459 7.6511 3.39542C7.32935 3.27626 6.97781 3.21667 6.59648 3.21667C6.25983 3.21667 5.96043 3.26881 5.69826 3.37308C5.43609 3.47735 5.21414 3.61588 5.03242 3.78867C4.85367 3.96147 4.71662 4.15958 4.62129 4.38302C4.52894 4.60646 4.48276 4.83585 4.48276 5.07121C4.48276 5.36614 4.52447 5.6149 4.60788 5.81749C4.69428 6.01709 4.80749 6.18392 4.94751 6.31799C5.08753 6.45205 5.24692 6.56079 5.42567 6.64421C5.60442 6.72762 5.78614 6.79912 5.97085 6.85871C6.15556 6.91829 6.33729 6.9734 6.51604 7.02405C6.69479 7.0747 6.85418 7.13726 6.9942 7.21174C7.13422 7.28324 7.24594 7.37261 7.32935 7.47986C7.41575 7.58711 7.45895 7.72564 7.45895 7.89546C7.45895 8.19933 7.3651 8.4332 7.17742 8.59705C6.98973 8.75793 6.72458 8.83836 6.38198 8.83836C6.15854 8.83836 5.96638 8.80857 5.80551 8.74899C5.64761 8.68643 5.50908 8.6179 5.38992 8.54343C5.27373 8.46895 5.17244 8.40191 5.08604 8.34233C4.99964 8.27977 4.91921 8.24849 4.84473 8.24849C4.78812 8.24849 4.73599 8.26338 4.68832 8.29317C4.64363 8.31999 4.60491 8.35425 4.57213 8.39596L4.22357 8.97243C4.3487 9.10053 4.49021 9.21672 4.6481 9.32099C4.80898 9.42526 4.98028 9.51463 5.16201 9.58911C5.34672 9.66359 5.53887 9.7202 5.73848 9.75892C5.93808 9.80063 6.14067 9.82149 6.34623 9.82149C6.70373 9.82149 7.02101 9.76786 7.29807 9.66061C7.57513 9.55038 7.809 9.40143 7.99967 9.21374C8.19331 9.02307 8.33929 8.80112 8.4376 8.54789C8.53889 8.29169 8.58954 8.0176 8.58954 7.72564C8.58954 7.45752 8.54634 7.22961 8.45995 7.04192C8.37653 6.85424 8.26481 6.69634 8.12479 6.56824C7.98477 6.43715 7.82538 6.3299 7.64663 6.24649C7.46788 6.16009 7.28467 6.08561 7.09698 6.02305C6.91227 5.95751 6.73054 5.89643 6.55179 5.83983C6.37304 5.78323 6.21366 5.71917 6.07363 5.64767C5.93361 5.57617 5.82041 5.48978 5.73401 5.38849C5.65059 5.2872 5.60888 5.16058 5.60888 5.00864C5.60888 4.88948 5.62974 4.78074 5.67145 4.68242C5.71316 4.58113 5.77572 4.49474 5.85913 4.42324C5.94553 4.35174 6.0498 4.29662 6.17195 4.25789C6.29707 4.21619 6.44305 4.19533 6.60988 4.19533C6.79459 4.19533 6.95398 4.21916 7.08804 4.26683C7.22508 4.31152 7.34425 4.36216 7.44554 4.41877C7.54683 4.47537 7.63472 4.52751 7.7092 4.57517C7.78368 4.61986 7.85071 4.64221 7.91029 4.64221C7.96987 4.64221 8.02052 4.6288 8.06223 4.60199Z" fill="#DDD740"/>
<path fill-rule="evenodd" clip-rule="evenodd" d="M6.5 13C10.0899 13 13 10.0899 13 6.5C13 2.91015 10.0899 0 6.5 0C2.91015 0 0 2.91015 0 6.5C0 10.0899 2.91015 13 6.5 13ZM8.06223 4.60199C8.10692 4.57517 8.14565 4.529 8.17842 4.46346L8.47335 3.89592C8.24694 3.68142 7.97285 3.51459 7.6511 3.39542C7.32935 3.27626 6.97781 3.21667 6.59648 3.21667C6.25983 3.21667 5.96043 3.26881 5.69826 3.37308C5.43609 3.47735 5.21414 3.61588 5.03242 3.78867C4.85367 3.96147 4.71662 4.15958 4.62129 4.38302C4.52894 4.60646 4.48276 4.83585 4.48276 5.07121C4.48276 5.36614 4.52447 5.6149 4.60788 5.81749C4.69428 6.01709 4.80749 6.18392 4.94751 6.31799C5.08753 6.45205 5.24692 6.56079 5.42567 6.64421C5.60442 6.72762 5.78614 6.79912 5.97085 6.85871C6.15556 6.91829 6.33729 6.9734 6.51604 7.02405C6.69479 7.0747 6.85418 7.13726 6.9942 7.21174C7.13422 7.28324 7.24594 7.37261 7.32935 7.47986C7.41575 7.58711 7.45895 7.72564 7.45895 7.89546C7.45895 8.19933 7.3651 8.4332 7.17742 8.59705C6.98973 8.75793 6.72458 8.83836 6.38198 8.83836C6.15854 8.83836 5.96638 8.80857 5.80551 8.74899C5.64761 8.68643 5.50908 8.6179 5.38992 8.54343C5.27373 8.46895 5.17244 8.40191 5.08604 8.34233C4.99964 8.27977 4.91921 8.24849 4.84473 8.24849C4.78812 8.24849 4.73599 8.26338 4.68832 8.29317C4.64363 8.31999 4.60491 8.35425 4.57213 8.39596L4.22357 8.97243C4.3487 9.10053 4.49021 9.21672 4.6481 9.32099C4.80898 9.42526 4.98028 9.51463 5.16201 9.58911C5.34672 9.66359 5.53887 9.7202 5.73848 9.75892C5.93808 9.80063 6.14067 9.82149 6.34623 9.82149C6.70373 9.82149 7.02101 9.76786 7.29807 9.66061C7.57513 9.55038 7.809 9.40143 7.99967 9.21374C8.19331 9.02307 8.33929 8.80112 8.4376 8.54789C8.53889 8.29169 8.58954 8.0176 8.58954 7.72564C8.58954 7.45752 8.54634 7.22961 8.45995 7.04192C8.37653 6.85424 8.26481 6.69634 8.12479 6.56824C7.98477 6.43715 7.82538 6.3299 7.64663 6.24649C7.46788 6.16009 7.28467 6.08561 7.09698 6.02305C6.91227 5.95751 6.73054 5.89643 6.55179 5.83983C6.37304 5.78323 6.21366 5.71917 6.07363 5.64767C5.93361 5.57617 5.82041 5.48978 5.73401 5.38849C5.65059 5.2872 5.60888 5.16058 5.60888 5.00864C5.60888 4.88948 5.62974 4.78074 5.67145 4.68242C5.71316 4.58113 5.77572 4.49474 5.85913 4.42324C5.94553 4.35174 6.0498 4.29662 6.17195 4.25789C6.29707 4.21619 6.44305 4.19533 6.60988 4.19533C6.79459 4.19533 6.95398 4.21916 7.08804 4.26683C7.22508 4.31152 7.34425 4.36216 7.44554 4.41877C7.54683 4.47537 7.63472 4.52751 7.7092 4.57517C7.78368 4.61986 7.85071 4.64221 7.91029 4.64221C7.96987 4.64221 8.02052 4.6288 8.06223 4.60199Z" fill="#DDD740"/>
<path fill-rule="evenodd" clip-rule="evenodd" d="M6.5 13C10.0899 13 13 10.0899 13 6.5C13 2.91015 10.0899 0 6.5 0C2.91015 0 0 2.91015 0 6.5C0 10.0899 2.91015 13 6.5 13ZM8.06223 4.60199C8.10692 4.57517 8.14565 4.529 8.17842 4.46346L8.47335 3.89592C8.24694 3.68142 7.97285 3.51459 7.6511 3.39542C7.32935 3.27626 6.97781 3.21667 6.59648 3.21667C6.25983 3.21667 5.96043 3.26881 5.69826 3.37308C5.43609 3.47735 5.21414 3.61588 5.03242 3.78867C4.85367 3.96147 4.71662 4.15958 4.62129 4.38302C4.52894 4.60646 4.48276 4.83585 4.48276 5.07121C4.48276 5.36614 4.52447 5.6149 4.60788 5.81749C4.69428 6.01709 4.80749 6.18392 4.94751 6.31799C5.08753 6.45205 5.24692 6.56079 5.42567 6.64421C5.60442 6.72762 5.78614 6.79912 5.97085 6.85871C6.15556 6.91829 6.33729 6.9734 6.51604 7.02405C6.69479 7.0747 6.85418 7.13726 6.9942 7.21174C7.13422 7.28324 7.24594 7.37261 7.32935 7.47986C7.41575 7.58711 7.45895 7.72564 7.45895 7.89546C7.45895 8.19933 7.3651 8.4332 7.17742 8.59705C6.98973 8.75793 6.72458 8.83836 6.38198 8.83836C6.15854 8.83836 5.96638 8.80857 5.80551 8.74899C5.64761 8.68643 5.50908 8.6179 5.38992 8.54343C5.27373 8.46895 5.17244 8.40191 5.08604 8.34233C4.99964 8.27977 4.91921 8.24849 4.84473 8.24849C4.78812 8.24849 4.73599 8.26338 4.68832 8.29317C4.64363 8.31999 4.60491 8.35425 4.57213 8.39596L4.22357 8.97243C4.3487 9.10053 4.49021 9.21672 4.6481 9.32099C4.80898 9.42526 4.98028 9.51463 5.16201 9.58911C5.34672 9.66359 5.53887 9.7202 5.73848 9.75892C5.93808 9.80063 6.14067 9.82149 6.34623 9.82149C6.70373 9.82149 7.02101 9.76786 7.29807 9.66061C7.57513 9.55038 7.809 9.40143 7.99967 9.21374C8.19331 9.02307 8.33929 8.80112 8.4376 8.54789C8.53889 8.29169 8.58954 8.0176 8.58954 7.72564C8.58954 7.45752 8.54634 7.22961 8.45995 7.04192C8.37653 6.85424 8.26481 6.69634 8.12479 6.56824C7.98477 6.43715 7.82538 6.3299 7.64663 6.24649C7.46788 6.16009 7.28467 6.08561 7.09698 6.02305C6.91227 5.95751 6.73054 5.89643 6.55179 5.83983C6.37304 5.78323 6.21366 5.71917 6.07363 5.64767C5.93361 5.57617 5.82041 5.48978 5.73401 5.38849C5.65059 5.2872 5.60888 5.16058 5.60888 5.00864C5.60888 4.88948 5.62974 4.78074 5.67145 4.68242C5.71316 4.58113 5.77572 4.49474 5.85913 4.42324C5.94553 4.35174 6.0498 4.29662 6.17195 4.25789C6.29707 4.21619 6.44305 4.19533 6.60988 4.19533C6.79459 4.19533 6.95398 4.21916 7.08804 4.26683C7.22508 4.31152 7.34425 4.36216 7.44554 4.41877C7.54683 4.47537 7.63472 4.52751 7.7092 4.57517C7.78368 4.61986 7.85071 4.64221 7.91029 4.64221C7.96987 4.64221 8.02052 4.6288 8.06223 4.60199Z" fill="#DDD740"/>
</svg>
