<svg width="13" height="13" viewBox="0 0 13 13" fill="none" xmlns="http://www.w3.org/2000/svg">
<path d="M6.25 12.75C2.79813 12.75 0 9.95187 0 6.5C0 3.04813 2.79813 0.25 6.25 0.25C9.70187 0.25 12.5 3.04813 12.5 6.5C12.5 9.95187 9.70187 12.75 6.25 12.75ZM6.25 11.5C7.57608 11.5 8.84785 10.9732 9.78553 10.0355C10.7232 9.09785 11.25 7.82608 11.25 6.5C11.25 5.17392 10.7232 3.90215 9.78553 2.96447C8.84785 2.02678 7.57608 1.5 6.25 1.5C4.92392 1.5 3.65215 2.02678 2.71447 2.96447C1.77678 3.90215 1.25 5.17392 1.25 6.5C1.25 7.82608 1.77678 9.09785 2.71447 10.0355C3.65215 10.9732 4.92392 11.5 6.25 11.5ZM5.62687 9L2.975 6.34812L3.85875 5.46438L5.62687 7.2325L8.68056 4.17819L9.51576 5.11111L5.62687 9Z" fill="#333333"/>
</svg>
