<svg width="14" height="14" viewBox="0 0 14 14" fill="none" xmlns="http://www.w3.org/2000/svg">
<path d="M0.934259 13.5L2.26759 11.5H11.7324L13.0657 13.5H0.934259Z" fill="white" stroke="#333333"/>
<path d="M11.5 5.14286C11.5 7.10079 10.3495 8.94839 9.12371 10.3493C8.51831 11.0412 7.91153 11.6048 7.45585 11.9954C7.2769 12.1488 7.12181 12.275 7 12.3713C6.87819 12.275 6.7231 12.1488 6.54415 11.9954C6.08847 11.6048 5.48169 11.0412 4.87629 10.3493C3.65047 8.94839 2.5 7.10079 2.5 5.14286C2.5 2.56531 4.5279 0.5 7 0.5C9.4721 0.5 11.5 2.56531 11.5 5.14286Z" fill="white" stroke="#333333"/>
<path fill-rule="evenodd" clip-rule="evenodd" d="M7 7C8.10457 7 9 6.10457 9 5C9 3.89543 8.10457 3 7 3C5.89543 3 5 3.89543 5 5C5 6.10457 5.89543 7 7 7ZM7 6C7.55228 6 8 5.55228 8 5C8 4.44772 7.55228 4 7 4C6.44772 4 6 4.44772 6 5C6 5.55228 6.44772 6 7 6Z" fill="#333333"/>
</svg>
