<svg width="18" height="18" viewBox="0 0 18 18" fill="none" xmlns="http://www.w3.org/2000/svg">
<path d="M9.0003 16.5001C8.11387 16.5001 7.23613 16.3255 6.41718 15.9862C5.59824 15.647 4.85412 15.1498 4.22733 14.523C3.60053 13.8962 3.10333 13.1521 2.76411 12.3332C2.42489 11.5142 2.2503 10.6365 2.2503 9.75005C2.2503 8.86363 2.42489 7.98589 2.76411 7.16694C3.10333 6.34799 3.60053 5.60388 4.22733 4.97708C4.85412 4.35029 5.59824 3.85309 6.41718 3.51387C7.23613 3.17465 8.11387 3.00005 9.0003 3.00005C10.7905 3.00005 12.5074 3.71121 13.7733 4.97708C15.0391 6.24295 15.7503 7.95984 15.7503 9.75005C15.7503 11.5403 15.0391 13.2572 13.7733 14.523C12.5074 15.7889 10.7905 16.5001 9.0003 16.5001ZM9.0003 15.0001C9.68974 15.0001 10.3724 14.8643 11.0094 14.6004C11.6463 14.3366 12.2251 13.9499 12.7126 13.4624C13.2001 12.9749 13.5868 12.3961 13.8507 11.7591C14.1145 11.1222 14.2503 10.4395 14.2503 9.75005C14.2503 9.06061 14.1145 8.37792 13.8507 7.74096C13.5868 7.10401 13.2001 6.52525 12.7126 6.03774C12.2251 5.55024 11.6463 5.16352 11.0094 4.89969C10.3724 4.63585 9.68974 4.50005 9.0003 4.50005C7.60791 4.50005 6.27255 5.05318 5.28799 6.03774C4.30342 7.02231 3.7503 8.35767 3.7503 9.75005C3.7503 11.1424 4.30342 12.4778 5.28799 13.4624C6.27255 14.4469 7.60791 15.0001 9.0003 15.0001ZM9.7503 9.75005H12.0003V11.2501H8.2503V6.00005H9.7503V9.75005ZM1.31055 4.71155L3.9618 2.0603L5.02305 3.1208L2.3703 5.7728L1.31055 4.71155ZM14.038 2.0603L16.69 4.71155L15.6295 5.7728L12.9775 3.1208L14.0388 2.0603H14.038Z" fill="#333333"/>
</svg>
