<svg width="14" height="17" viewBox="0 0 14 17" fill="none" xmlns="http://www.w3.org/2000/svg">
<path d="M13.3974 5.79521C13.2982 5.87234 11.5575 6.85291 11.5575 9.03434C11.5575 11.5574 13.772 12.4498 13.8381 12.4718C13.8271 12.5268 13.4855 13.6947 12.6702 14.8846C11.9431 15.9313 11.1828 16.9779 10.026 16.9779C8.86921 16.9779 8.57169 16.3059 7.23855 16.3059C5.93848 16.3059 5.47572 17 4.41802 17C3.36032 17 2.62211 16.0304 1.77382 14.8405C0.793248 13.4413 0 11.2708 0 9.21057C0 5.9053 2.14847 4.15346 4.26376 4.15346C5.3876 4.15346 6.32401 4.89166 7.02914 4.89166C7.70121 4.89166 8.74792 4.1094 10.0259 4.1094C10.5107 4.10951 12.2516 4.15367 13.3974 5.79521ZM9.42009 2.71033C9.94888 2.08233 10.3235 1.21195 10.3235 0.341579C10.3235 0.220394 10.3125 0.0992093 10.2905 0C9.43108 0.0330698 8.40644 0.572961 7.78943 1.28908C7.30469 1.83996 6.85291 2.71034 6.85291 3.5918C6.85291 3.72398 6.87499 3.85626 6.88598 3.90031C6.94103 3.9113 7.02925 3.9224 7.11736 3.9224C7.88864 3.92229 8.85811 3.40448 9.42009 2.71033Z" fill="white"/>
</svg>
