<svg width="15" height="15" viewBox="0 0 15 15" fill="none" xmlns="http://www.w3.org/2000/svg">
<path d="M10.625 9.52799V13.823C10.625 13.8783 10.6104 13.9326 10.5825 13.9804C10.5547 14.0281 10.5147 14.0677 10.4666 14.0949C10.4185 14.1222 10.364 14.1362 10.3087 14.1355C10.2534 14.1349 10.1993 14.1195 10.1519 14.0911L7.5 12.4999L4.84813 14.0911C4.80065 14.1196 4.74647 14.1349 4.69113 14.1355C4.63579 14.1362 4.58127 14.1221 4.53315 14.0948C4.48503 14.0674 4.44503 14.0278 4.41724 13.98C4.38946 13.9321 4.37488 13.8777 4.375 13.8224V9.52861C3.56634 8.88117 2.97875 7.99854 2.69341 7.0027C2.40808 6.00686 2.4391 4.94698 2.78218 3.96953C3.12527 2.99208 3.76348 2.14533 4.60861 1.54629C5.45375 0.947243 6.46409 0.625488 7.5 0.625488C8.53591 0.625488 9.54625 0.947243 10.3914 1.54629C11.2365 2.14533 11.8747 2.99208 12.2178 3.96953C12.5609 4.94698 12.5919 6.00686 12.3066 7.0027C12.0213 7.99854 11.4337 8.88117 10.625 9.52861V9.52799ZM7.5 9.37486C8.49456 9.37486 9.44839 8.97977 10.1517 8.27651C10.8549 7.57325 11.25 6.61942 11.25 5.62486C11.25 4.6303 10.8549 3.67647 10.1517 2.97321C9.44839 2.26995 8.49456 1.87486 7.5 1.87486C6.50544 1.87486 5.55161 2.26995 4.84835 2.97321C4.14509 3.67647 3.75 4.6303 3.75 5.62486C3.75 6.61942 4.14509 7.57325 4.84835 8.27651C5.55161 8.97977 6.50544 9.37486 7.5 9.37486ZM7.5 8.12486C6.83696 8.12486 6.20107 7.86147 5.73223 7.39263C5.26339 6.92379 5 6.2879 5 5.62486C5 4.96182 5.26339 4.32594 5.73223 3.8571C6.20107 3.38825 6.83696 3.12486 7.5 3.12486C8.16304 3.12486 8.79893 3.38825 9.26777 3.8571C9.73661 4.32594 10 4.96182 10 5.62486C10 6.2879 9.73661 6.92379 9.26777 7.39263C8.79893 7.86147 8.16304 8.12486 7.5 8.12486Z" fill="#333333"/>
</svg>
