<svg width="11" height="12" viewBox="0 0 11 12" fill="none" xmlns="http://www.w3.org/2000/svg">
<path d="M5.14286 0C5.51806 0 5.88959 0.0739022 6.23624 0.217487C6.58288 0.361072 6.89785 0.571528 7.16316 0.836838C7.42847 1.10215 7.63893 1.41712 7.78251 1.76376C7.9261 2.11041 8 2.48194 8 2.85714V4H9.71428C9.86584 4 10.0112 4.0602 10.1183 4.16737C10.2255 4.27453 10.2857 4.41988 10.2857 4.57143V11.4286C10.2857 11.5801 10.2255 11.7255 10.1183 11.8326C10.0112 11.9398 9.86584 12 9.71428 12H0.571429C0.419876 12 0.274531 11.9398 0.167368 11.8326C0.0602039 11.7255 0 11.5801 0 11.4286V4.57143C0 4.41988 0.0602039 4.27453 0.167368 4.16737C0.274531 4.0602 0.419876 4 0.571429 4H2.28571V2.85714C2.28571 2.09938 2.58673 1.37266 3.12255 0.836838C3.65837 0.30102 4.3851 0 5.14286 0ZM8 5.71429H6.85714V6.28571C6.8573 6.43136 6.91307 6.57145 7.01306 6.67735C7.11304 6.78326 7.24969 6.84699 7.39508 6.85553C7.54048 6.86406 7.68364 6.81676 7.79533 6.72328C7.90702 6.6298 7.9788 6.4972 7.996 6.35257L8 6.28571V5.71429ZM3.42857 5.71429H2.28571V6.28571C2.28588 6.43136 2.34165 6.57145 2.44163 6.67735C2.54161 6.78326 2.67826 6.84699 2.82365 6.85553C2.96905 6.86406 3.11222 6.81676 3.2239 6.72328C3.33559 6.6298 3.40737 6.4972 3.42457 6.35257L3.42857 6.28571V5.71429ZM5.14286 1.14286C4.70559 1.14283 4.28485 1.3099 3.96671 1.60988C3.64857 1.90985 3.45708 2.32006 3.43143 2.75657L3.42857 2.85714V4H6.85714V2.85714C6.85717 2.41988 6.6901 1.99913 6.39012 1.68099C6.09015 1.36285 5.67994 1.17137 5.24343 1.14571L5.14286 1.14286Z" fill="#999999"/>
</svg>
