<svg width="15" height="16" viewBox="0 0 15 16" fill="none" xmlns="http://www.w3.org/2000/svg">
<path d="M4.55688 13.515L1.25001 14.25L1.98501 10.9431C1.50096 10.0377 1.24846 9.02665 1.25001 8C1.25001 4.54813 4.04813 1.75 7.50001 1.75C10.9519 1.75 13.75 4.54813 13.75 8C13.75 11.4519 10.9519 14.25 7.50001 14.25C6.47335 14.2515 5.46227 13.999 4.55688 13.515ZM4.73813 12.1944L5.14626 12.4131C5.87035 12.8001 6.679 13.0017 7.50001 13C8.48891 13 9.45561 12.7068 10.2779 12.1573C11.1001 11.6079 11.741 10.827 12.1194 9.91342C12.4978 8.99979 12.5969 7.99445 12.4039 7.02455C12.211 6.05464 11.7348 5.16373 11.0355 4.46447C10.3363 3.7652 9.44536 3.289 8.47546 3.09607C7.50555 2.90315 6.50022 3.00216 5.58659 3.3806C4.67296 3.75904 3.89207 4.3999 3.34266 5.22215C2.79325 6.04439 2.50001 7.01109 2.50001 8C2.50001 8.83375 2.70313 9.63625 3.08751 10.3538L3.30563 10.7619L2.89626 12.6037L4.73813 12.1944ZM4.37501 8H5.62501C5.62501 8.49728 5.82255 8.97419 6.17418 9.32583C6.52581 9.67746 7.00273 9.875 7.50001 9.875C7.99729 9.875 8.4742 9.67746 8.82583 9.32583C9.17746 8.97419 9.37501 8.49728 9.37501 8H10.625C10.625 8.8288 10.2958 9.62366 9.70972 10.2097C9.12366 10.7958 8.32881 11.125 7.50001 11.125C6.67121 11.125 5.87635 10.7958 5.2903 10.2097C4.70425 9.62366 4.37501 8.8288 4.37501 8Z" fill="#333333"/>
</svg>
