<svg width="15" height="15" viewBox="0 0 15 15" fill="none" xmlns="http://www.w3.org/2000/svg">
<path d="M5.36604 5.53629L2.27229 8.63004L5.51854 11.8763H6.24979V11.875H6.98229L9.34354 9.51379L5.36604 5.53629ZM6.24979 4.65254L10.2273 8.63004L11.9948 6.86192L8.01729 2.88442L6.24979 4.65254ZM8.74979 11.875H13.1248V13.125H7.49979L5.00104 13.1263L0.946663 9.07192C0.829494 8.95471 0.763672 8.79577 0.763672 8.63004C0.763672 8.46432 0.829494 8.30537 0.946663 8.18817L7.57479 1.55879C7.63283 1.50068 7.70176 1.45458 7.77764 1.42313C7.85351 1.39168 7.93484 1.37549 8.01698 1.37549C8.09911 1.37549 8.18044 1.39168 8.25631 1.42313C8.33219 1.45458 8.40112 1.50068 8.45916 1.55879L13.3204 6.42004C13.4376 6.53725 13.5034 6.69619 13.5034 6.86192C13.5034 7.02765 13.4376 7.18659 13.3204 7.30379L8.74979 11.875Z" fill="#333333"/>
</svg>
