<svg width="14" height="14" viewBox="0 0 14 14" fill="none" xmlns="http://www.w3.org/2000/svg">
<path d="M7 -6.11959e-07C10.8661 -2.73974e-07 14 3.1339 14 7C14 10.8661 10.8661 14 7 14C3.1339 14 2.73974e-07 10.8661 6.11959e-07 7C9.49945e-07 3.1339 3.1339 -9.49945e-07 7 -6.11959e-07ZM7 1.4C5.51479 1.4 4.09041 1.99 3.0402 3.0402C1.99 4.0904 1.4 5.51479 1.4 7C1.4 8.48521 1.99 9.90959 3.0402 10.9598C4.09041 12.01 5.51479 12.6 7 12.6C8.48521 12.6 9.90959 12.01 10.9598 10.9598C12.01 9.90959 12.6 8.48521 12.6 7C12.6 5.51479 12.01 4.09041 10.9598 3.0402C9.9096 1.99 8.48521 1.4 7 1.4ZM7.7 4.9L6.3 4.9L6.3 3.5L7.7 3.5L7.7 4.9ZM7.7 10.5L6.3 10.5L6.3 6.3L7.7 6.3L7.7 10.5Z" fill="#AAAAAA"/>
</svg>
