<svg width="14" height="14" viewBox="0 0 14 14" fill="none" xmlns="http://www.w3.org/2000/svg">
<path d="M7 0C3.1339 0 0 3.1339 0 7C0 10.8661 3.1339 14 7 14C10.8661 14 14 10.8661 14 7C14 3.1339 10.8661 0 7 0ZM7 1.4C8.48521 1.4 9.90959 1.99 10.9598 3.0402C12.01 4.09041 12.6 5.51479 12.6 7C12.6 8.48521 12.01 9.90959 10.9598 10.9598C9.90959 12.01 8.48521 12.6 7 12.6C5.51479 12.6 4.09041 12.01 3.0402 10.9598C1.99 9.90959 1.4 8.48521 1.4 7C1.4 5.51479 1.99 4.09041 3.0402 3.0402C4.09041 1.99 5.51479 1.4 7 1.4ZM6.3 4.9L7.7 4.9V3.5L6.3 3.5V4.9ZM6.3 10.5H7.7L7.7 6.3H6.3L6.3 10.5Z" fill="#E72626"/>
</svg>
