<svg width="30" height="30" viewBox="0 0 30 30" fill="none" xmlns="http://www.w3.org/2000/svg">
<rect width="30" height="30" rx="3" fill="#DDD740"/>
<path d="M15.8613 11.8396L17.011 12.9893C17.5392 13.5174 17.9581 14.1444 18.244 14.8345C18.5299 15.5246 18.677 16.2642 18.677 17.0111C18.677 17.7581 18.5299 18.4977 18.244 19.1878C17.9581 19.8779 17.5392 20.5049 17.011 21.033L16.7233 21.3198C15.6567 22.3865 14.21 22.9857 12.7015 22.9857C11.193 22.9857 9.74625 22.3865 8.67959 21.3198C7.61292 20.2531 7.01367 18.8064 7.01367 17.2979C7.01367 15.7894 7.61292 14.3427 8.67959 13.2761L9.82927 14.4258C9.44932 14.8024 9.14751 15.2504 8.94115 15.744C8.7348 16.2375 8.62797 16.767 8.6268 17.302C8.62563 17.837 8.73014 18.367 8.93433 18.8615C9.13852 19.356 9.43837 19.8053 9.81667 20.1835C10.195 20.5618 10.6443 20.8617 11.1387 21.0659C11.6332 21.2701 12.1632 21.3746 12.6982 21.3734C13.2332 21.3722 13.7627 21.2654 14.2563 21.0591C14.7499 20.8527 15.1978 20.5509 15.5745 20.1709L15.8621 19.8833C16.6237 19.1215 17.0515 18.0884 17.0515 17.0111C17.0515 15.9339 16.6237 14.9008 15.8621 14.1389L14.7124 12.9893L15.8621 11.8404L15.8613 11.8396ZM21.3196 16.7235L20.1708 15.5746C20.5507 15.198 20.8525 14.75 21.0589 14.2564C21.2652 13.7628 21.3721 13.2333 21.3733 12.6983C21.3744 12.1634 21.2699 11.6334 21.0657 11.1389C20.8615 10.6444 20.5617 10.1951 20.1834 9.81683C19.8051 9.43853 19.3558 9.13868 18.8613 8.93449C18.3668 8.7303 17.8369 8.62579 17.3019 8.62696C16.7669 8.62813 16.2374 8.73496 15.7438 8.94132C15.2502 9.14767 14.8022 9.44949 14.4256 9.82944L14.138 10.1171C13.3764 10.8789 12.9485 11.912 12.9485 12.9893C12.9485 14.0665 13.3764 15.0996 14.138 15.8614L15.2876 17.0111L14.138 18.16L12.9891 17.0111C12.4609 16.483 12.0419 15.856 11.756 15.1659C11.4702 14.4758 11.3231 13.7362 11.3231 12.9893C11.3231 12.2423 11.4702 11.5027 11.756 10.8126C12.0419 10.1225 12.4609 9.49552 12.9891 8.96738L13.2767 8.68056C14.3434 7.6139 15.7901 7.01465 17.2986 7.01465C18.8071 7.01465 20.2538 7.6139 21.3205 8.68056C22.3871 9.74723 22.9864 11.1939 22.9864 12.7024C22.9864 14.2109 22.3871 15.6576 21.3205 16.7243L21.3196 16.7235Z" fill="#333333"/>
</svg>
