<svg width="13" height="12" viewBox="0 0 13 12" fill="none" xmlns="http://www.w3.org/2000/svg">
<path d="M11.8577 1.14059C13.328 2.61292 13.3787 4.95774 12.0111 6.4872L6.49923 12L0.988636 6.4872C-0.378939 4.95774 -0.32759 2.60902 1.14203 1.14059C2.61426 -0.329145 4.96916 -0.378483 6.50053 0.992576C8.02735 -0.376535 10.3868 -0.331093 11.8577 1.14059ZM2.06177 2.05917C1.09328 3.02644 1.04453 4.57473 1.93697 5.59783L6.49988 10.1622L11.0628 5.59848C11.9559 4.57473 11.9071 3.02839 10.9373 2.05787C9.97082 1.0906 8.41475 1.04386 7.39297 1.93713L4.66172 4.66561L3.74198 3.74768L5.5782 1.91246L5.5249 1.86767C4.50117 1.04646 3.0049 1.11657 2.06177 2.05917Z" fill="#AAAAAA"/>
</svg>
