<svg width="12" height="12" viewBox="0 0 12 12" fill="none" xmlns="http://www.w3.org/2000/svg">
<path fill-rule="evenodd" clip-rule="evenodd" d="M6 12C9.31371 12 12 9.31371 12 6C12 2.68629 9.31371 0 6 0C2.68629 0 0 2.68629 0 6C0 9.31371 2.68629 12 6 12ZM6 11C8.76142 11 11 8.76142 11 6C11 3.23858 8.76142 1 6 1C3.23858 1 1 3.23858 1 6C1 8.76142 3.23858 11 6 11Z" fill="#C4C4C4"/>
<rect x="5.5" y="1" width="1" height="3" fill="#C4C4C4"/>
<rect x="5.5" y="8" width="1" height="3" fill="#C4C4C4"/>
<rect x="11" y="5.5" width="1" height="3" transform="rotate(90 11 5.5)" fill="#C4C4C4"/>
<rect x="4" y="5.5" width="1" height="3" transform="rotate(90 4 5.5)" fill="#C4C4C4"/>
</svg>
