<svg width="10" height="13" viewBox="0 0 10 13" fill="none" xmlns="http://www.w3.org/2000/svg">
<path fill-rule="evenodd" clip-rule="evenodd" d="M5.24922 11.8514L8.34701 8.64357C9.03082 7.93545 9.4965 7.03326 9.68516 6.05107C9.87382 5.06889 9.77698 4.05084 9.4069 3.12564C9.03682 2.20045 8.41012 1.40967 7.60603 0.853315C6.80195 0.296956 5.85661 0 4.88955 0C3.92249 0 2.97715 0.296956 2.17307 0.853315C1.36899 1.40967 0.742283 2.20045 0.372203 3.12564C0.00212253 4.05084 -0.0947104 5.06889 0.0939492 6.05107C0.282609 7.03326 0.748287 7.93545 1.4321 8.64357L4.52988 11.8514C4.72646 12.055 5.05265 12.055 5.24922 11.8514ZM4.83859 6.31574C5.68248 6.31574 6.36658 5.63163 6.36658 4.78775C6.36658 3.94387 5.68248 3.25977 4.83859 3.25977C3.99471 3.25977 3.31061 3.94387 3.31061 4.78775C3.31061 5.63163 3.99471 6.31574 4.83859 6.31574Z" fill="#999999"/>
</svg>
