<svg width="14" height="14" viewBox="0 0 14 14" fill="none" xmlns="http://www.w3.org/2000/svg">
<path fill-rule="evenodd" clip-rule="evenodd" d="M13.5002 7C13.5002 10.5899 10.5901 13.5 7.00024 13.5C3.41039 13.5 0.500244 10.5899 0.500244 7C0.500244 3.41015 3.41039 0.5 7.00024 0.5C10.5901 0.5 13.5002 3.41015 13.5002 7ZM12.5002 7C12.5002 10.0376 10.0378 12.5 7.00024 12.5C3.96268 12.5 1.50024 10.0376 1.50024 7C1.50024 3.96243 3.96268 1.5 7.00024 1.5C10.0378 1.5 12.5002 3.96243 12.5002 7ZM7.50024 3.5V6.5H10.5002V7.5H7.50024V10.5H6.50024V7.5H3.50024V6.5H6.50024V3.5H7.50024Z" fill="#333333"/>
</svg>
