<svg width="15" height="16" viewBox="0 0 15 16" fill="none" xmlns="http://www.w3.org/2000/svg">
<path d="M12.5 14.25H2.5C2.33424 14.25 2.17527 14.1842 2.05806 14.0669C1.94085 13.9497 1.875 13.7908 1.875 13.625V2.375C1.875 2.20924 1.94085 2.05027 2.05806 1.93306C2.17527 1.81585 2.33424 1.75 2.5 1.75H12.5C12.6658 1.75 12.8247 1.81585 12.9419 1.93306C13.0592 2.05027 13.125 2.20924 13.125 2.375V13.625C13.125 13.7908 13.0592 13.9497 12.9419 14.0669C12.8247 14.1842 12.6658 14.25 12.5 14.25ZM11.875 13V3H3.125V13H11.875ZM5 6.125H10V7.375H5V6.125ZM5 8.625H10V9.875H5V8.625Z" fill="#333333"/>
</svg>
