<svg width="15" height="15" viewBox="0 0 15 15" fill="none" xmlns="http://www.w3.org/2000/svg">
<path d="M12.5 13.75H11.25V12.5C11.25 12.0027 11.0525 11.5258 10.7008 11.1742C10.3492 10.8225 9.87228 10.625 9.375 10.625H5.625C5.12772 10.625 4.6508 10.8225 4.29917 11.1742C3.94754 11.5258 3.75 12.0027 3.75 12.5V13.75H2.5V12.5C2.5 11.6712 2.82924 10.8763 3.41529 10.2903C4.00134 9.70424 4.7962 9.375 5.625 9.375H9.375C10.2038 9.375 10.9987 9.70424 11.5847 10.2903C12.1708 10.8763 12.5 11.6712 12.5 12.5V13.75ZM7.5 8.125C7.00754 8.125 6.51991 8.028 6.06494 7.83955C5.60997 7.65109 5.19657 7.37487 4.84835 7.02665C4.50013 6.67843 4.22391 6.26503 4.03545 5.81006C3.847 5.35509 3.75 4.86746 3.75 4.375C3.75 3.88254 3.847 3.39491 4.03545 2.93994C4.22391 2.48497 4.50013 2.07157 4.84835 1.72335C5.19657 1.37513 5.60997 1.09891 6.06494 0.910452C6.51991 0.721997 7.00754 0.625 7.5 0.625C8.49456 0.625 9.44839 1.02009 10.1516 1.72335C10.8549 2.42661 11.25 3.38044 11.25 4.375C11.25 5.36956 10.8549 6.32339 10.1516 7.02665C9.44839 7.72991 8.49456 8.125 7.5 8.125ZM7.5 6.875C8.16304 6.875 8.79892 6.61161 9.26777 6.14277C9.73661 5.67393 10 5.03804 10 4.375C10 3.71196 9.73661 3.07607 9.26777 2.60723C8.79892 2.13839 8.16304 1.875 7.5 1.875C6.83696 1.875 6.20107 2.13839 5.73223 2.60723C5.26339 3.07607 5 3.71196 5 4.375C5 5.03804 5.26339 5.67393 5.73223 6.14277C6.20107 6.61161 6.83696 6.875 7.5 6.875Z" fill="#333333"/>
</svg>
