<svg width="13" height="13" viewBox="0 0 13 13" fill="none" xmlns="http://www.w3.org/2000/svg">
<path fill-rule="evenodd" clip-rule="evenodd" d="M6.5 13C10.0899 13 13 10.0899 13 6.5C13 2.91015 10.0899 0 6.5 0C2.91015 0 0 2.91015 0 6.5C0 10.0899 2.91015 13 6.5 13ZM5.67084 9.71181V7.43722H6.57353C6.99359 7.43722 7.36003 7.38508 7.67284 7.28081C7.98566 7.17654 8.24633 7.03056 8.45487 6.84288C8.66342 6.65519 8.81982 6.43175 8.92409 6.17256C9.02837 5.9104 9.0805 5.62291 9.0805 5.31009C9.0805 5.0092 9.03134 4.73214 8.93303 4.47891C8.83472 4.22568 8.68278 4.0082 8.47722 3.82647C8.27166 3.64474 8.01098 3.50323 7.69519 3.40194C7.3794 3.30065 7.00551 3.25 6.57353 3.25H4.46875V9.71181H5.67084ZM6.57353 6.49878H5.67084V4.1795H6.57353C6.79399 4.1795 6.98615 4.20631 7.15 4.25994C7.31385 4.31058 7.44941 4.38506 7.55666 4.48338C7.66391 4.58169 7.74434 4.70085 7.79797 4.84088C7.85159 4.9809 7.87841 5.1373 7.87841 5.31009C7.87841 5.49182 7.85159 5.65717 7.79797 5.80613C7.74434 5.9521 7.66391 6.07723 7.55666 6.1815C7.44941 6.28279 7.31385 6.36174 7.15 6.41834C6.98615 6.47197 6.79399 6.49878 6.57353 6.49878Z" fill="#DDD740"/>
<path fill-rule="evenodd" clip-rule="evenodd" d="M6.5 13C10.0899 13 13 10.0899 13 6.5C13 2.91015 10.0899 0 6.5 0C2.91015 0 0 2.91015 0 6.5C0 10.0899 2.91015 13 6.5 13ZM5.67084 9.71181V7.43722H6.57353C6.99359 7.43722 7.36003 7.38508 7.67284 7.28081C7.98566 7.17654 8.24633 7.03056 8.45487 6.84288C8.66342 6.65519 8.81982 6.43175 8.92409 6.17256C9.02837 5.9104 9.0805 5.62291 9.0805 5.31009C9.0805 5.0092 9.03134 4.73214 8.93303 4.47891C8.83472 4.22568 8.68278 4.0082 8.47722 3.82647C8.27166 3.64474 8.01098 3.50323 7.69519 3.40194C7.3794 3.30065 7.00551 3.25 6.57353 3.25H4.46875V9.71181H5.67084ZM6.57353 6.49878H5.67084V4.1795H6.57353C6.79399 4.1795 6.98615 4.20631 7.15 4.25994C7.31385 4.31058 7.44941 4.38506 7.55666 4.48338C7.66391 4.58169 7.74434 4.70085 7.79797 4.84088C7.85159 4.9809 7.87841 5.1373 7.87841 5.31009C7.87841 5.49182 7.85159 5.65717 7.79797 5.80613C7.74434 5.9521 7.66391 6.07723 7.55666 6.1815C7.44941 6.28279 7.31385 6.36174 7.15 6.41834C6.98615 6.47197 6.79399 6.49878 6.57353 6.49878Z" fill="#DDD740"/>
<path fill-rule="evenodd" clip-rule="evenodd" d="M6.5 13C10.0899 13 13 10.0899 13 6.5C13 2.91015 10.0899 0 6.5 0C2.91015 0 0 2.91015 0 6.5C0 10.0899 2.91015 13 6.5 13ZM5.67084 9.71181V7.43722H6.57353C6.99359 7.43722 7.36003 7.38508 7.67284 7.28081C7.98566 7.17654 8.24633 7.03056 8.45487 6.84288C8.66342 6.65519 8.81982 6.43175 8.92409 6.17256C9.02837 5.9104 9.0805 5.62291 9.0805 5.31009C9.0805 5.0092 9.03134 4.73214 8.93303 4.47891C8.83472 4.22568 8.68278 4.0082 8.47722 3.82647C8.27166 3.64474 8.01098 3.50323 7.69519 3.40194C7.3794 3.30065 7.00551 3.25 6.57353 3.25H4.46875V9.71181H5.67084ZM6.57353 6.49878H5.67084V4.1795H6.57353C6.79399 4.1795 6.98615 4.20631 7.15 4.25994C7.31385 4.31058 7.44941 4.38506 7.55666 4.48338C7.66391 4.58169 7.74434 4.70085 7.79797 4.84088C7.85159 4.9809 7.87841 5.1373 7.87841 5.31009C7.87841 5.49182 7.85159 5.65717 7.79797 5.80613C7.74434 5.9521 7.66391 6.07723 7.55666 6.1815C7.44941 6.28279 7.31385 6.36174 7.15 6.41834C6.98615 6.47197 6.79399 6.49878 6.57353 6.49878Z" fill="#DDD740"/>
</svg>
