<svg width="24" height="24" viewBox="0 0 24 24" fill="none" xmlns="http://www.w3.org/2000/svg">
<path d="M10.88 17.023L15.079 14.733C15.6272 15.3191 16.3391 15.7267 17.122 15.9029C17.9049 16.0791 18.7227 16.0157 19.4691 15.7211C20.2155 15.4264 20.8561 14.914 21.3075 14.2505C21.7589 13.587 22.0002 12.803 22.0002 12.0005C22.0002 11.198 21.7589 10.4141 21.3075 9.75058C20.8561 9.08707 20.2155 8.57467 19.4691 8.27998C18.7227 7.98529 17.9049 7.92193 17.122 8.09813C16.3391 8.27434 15.6272 8.68196 15.079 9.26802L10.879 6.97802C11.1175 6.03409 11.0035 5.03561 10.5584 4.16972C10.1133 3.30384 9.36773 2.63 8.46137 2.27452C7.55501 1.91904 6.55012 1.90633 5.63506 2.23875C4.71999 2.57118 3.95758 3.22594 3.49073 4.08028C3.02389 4.93463 2.88465 5.92991 3.09914 6.87957C3.31362 7.82922 3.86709 8.66806 4.6558 9.23883C5.44452 9.8096 6.41432 10.0731 7.38344 9.98001C8.35255 9.8869 9.25444 9.44353 9.92004 8.73302L14.12 11.023C13.9588 11.6644 13.9588 12.3357 14.12 12.977L9.92104 15.267C9.25543 14.5565 8.35355 14.1131 7.38444 14.02C6.41532 13.9269 5.44552 14.1904 4.6568 14.7612C3.86809 15.332 3.31462 16.1708 3.10014 17.1205C2.88565 18.0701 3.02489 19.0654 3.49173 19.9198C3.95858 20.7741 4.72099 21.4289 5.63605 21.7613C6.55112 22.0937 7.55601 22.081 8.46237 21.7255C9.36873 21.37 10.1143 20.6962 10.5594 19.8303C11.0045 18.9644 11.1185 17.9659 10.88 17.022V17.023ZM18 14C17.4696 14 16.9609 13.7893 16.5858 13.4142C16.2108 13.0392 16 12.5305 16 12C16 11.4696 16.2108 10.9609 16.5858 10.5858C16.9609 10.2107 17.4696 10 18 10C18.5305 10 19.0392 10.2107 19.4143 10.5858C19.7893 10.9609 20 11.4696 20 12C20 12.5305 19.7893 13.0392 19.4143 13.4142C19.0392 13.7893 18.5305 14 18 14ZM7.00004 8.00002C6.46961 8.00002 5.9609 7.78931 5.58582 7.41423C5.21075 7.03916 5.00004 6.53045 5.00004 6.00002C5.00004 5.46959 5.21075 4.96088 5.58582 4.58581C5.9609 4.21073 6.46961 4.00002 7.00004 4.00002C7.53047 4.00002 8.03918 4.21073 8.41425 4.58581C8.78932 4.96088 9.00004 5.46959 9.00004 6.00002C9.00004 6.53045 8.78932 7.03916 8.41425 7.41423C8.03918 7.78931 7.53047 8.00002 7.00004 8.00002ZM7.00004 20C6.46961 20 5.9609 19.7893 5.58582 19.4142C5.21075 19.0392 5.00004 18.5305 5.00004 18C5.00004 17.4696 5.21075 16.9609 5.58582 16.5858C5.9609 16.2107 6.46961 16 7.00004 16C7.53047 16 8.03918 16.2107 8.41425 16.5858C8.78932 16.9609 9.00004 17.4696 9.00004 18C9.00004 18.5305 8.78932 19.0392 8.41425 19.4142C8.03918 19.7893 7.53047 20 7.00004 20Z" fill="#333333"/>
</svg>
