<svg width="16" height="15" viewBox="0 0 16 15" fill="none" xmlns="http://www.w3.org/2000/svg">
<path d="M11.125 1.25H13C13.1658 1.25 13.3247 1.31585 13.4419 1.43306C13.5592 1.55027 13.625 1.70924 13.625 1.875V13.125C13.625 13.2908 13.5592 13.4497 13.4419 13.5669C13.3247 13.6842 13.1658 13.75 13 13.75H3C2.83424 13.75 2.67527 13.6842 2.55806 13.5669C2.44085 13.4497 2.375 13.2908 2.375 13.125V1.875C2.375 1.70924 2.44085 1.55027 2.55806 1.43306C2.67527 1.31585 2.83424 1.25 3 1.25H4.875V0H6.125V1.25H9.875V0H11.125V1.25ZM11.125 2.5V3.75H9.875V2.5H6.125V3.75H4.875V2.5H3.625V12.5H12.375V2.5H11.125ZM4.875 5H11.125V6.25H4.875V5ZM4.875 7.5H11.125V8.75H4.875V7.5Z" fill="#333333"/>
</svg>
