<svg width="75" height="21" viewBox="0 0 75 21" fill="none" xmlns="http://www.w3.org/2000/svg">
<path d="M71.2227 5.97668L70.3509 5.56876L71.0786 4.01577L69.3428 4.16477L69.2604 3.20633L70.9745 3.05918L69.977 1.63101L70.7665 1.08048L71.7764 2.52651L72.4936 0.995911L73.3654 1.40383L72.6575 2.91471L74.2949 2.77415L74.3773 3.7326L72.7182 3.87502L73.6583 5.22116L72.8688 5.77169L71.9412 4.44341L71.2227 5.97668Z" fill="#222222"/>
<path d="M16.8253 5.49441C17.0203 5.20281 17.1244 4.85997 17.1244 4.50926C17.1331 4.27406 17.0932 4.03959 17.0071 3.82052C16.921 3.60144 16.7906 3.40247 16.624 3.23605C16.4575 3.06962 16.2583 2.93932 16.0391 2.85328C15.8199 2.76724 15.5852 2.72733 15.3498 2.73602C14.9989 2.73602 14.6558 2.84002 14.364 3.03487C14.0721 3.22971 13.8447 3.50665 13.7104 3.83067C13.5761 4.15469 13.5409 4.51123 13.6094 4.8552C13.6779 5.19917 13.8469 5.51513 14.095 5.76313C14.3432 6.01112 14.6594 6.18 15.0036 6.24842C15.3479 6.31684 15.7047 6.28173 16.0289 6.14751C16.3532 6.0133 16.6303 5.78602 16.8253 5.49441Z" fill="#222222"/>
<path d="M13.9125 16.8687H16.8005V7.32427H13.9125V16.8687Z" fill="#222222"/>
<path fill-rule="evenodd" clip-rule="evenodd" d="M5.12845 3.61821H0V16.8377H5.12845C9.51602 16.8377 12.2266 14.1468 12.2266 10.2368C12.2266 6.32683 9.51158 3.61821 5.12845 3.61821ZM9.26758 10.2368C9.26758 12.7814 7.71042 14.2266 5.17725 14.2266H2.95906V6.24703H5.17725C7.71042 6.24703 9.26758 7.69222 9.26758 10.2368Z" fill="#222222"/>
<path d="M19.3027 7.32427H22.1907V8.29512C22.5023 7.89291 22.908 7.57338 23.3721 7.36467C23.8363 7.15595 24.3447 7.06444 24.8526 7.09818C27.0707 7.09818 28.5702 8.70296 28.5702 11.3318V16.8288H25.6822V11.8239C25.6822 10.3831 25.0966 9.60731 24.0096 9.60731C22.9227 9.60731 22.1907 10.4939 22.1907 11.979V16.8554H19.3027V7.32427Z" fill="#222222"/>
<path fill-rule="evenodd" clip-rule="evenodd" d="M33.9294 17.5824H31.0058C31.3164 19.4177 32.9046 20.9959 35.7217 20.9959C38.5388 20.9959 40.6017 19.2138 40.6017 16.6338V7.32427H37.7136V8.30399C37.3897 7.89879 36.9722 7.57819 36.497 7.36971C36.0217 7.16123 35.503 7.0711 34.9852 7.10705C32.2391 7.10705 30.3581 9.2172 30.3581 12.0056C30.3581 14.794 32.2569 16.8199 34.9852 16.8199C35.503 16.8559 36.0217 16.7658 36.497 16.5573C36.9722 16.3488 37.3897 16.0282 37.7136 15.623V16.6338C37.7256 16.8982 37.6813 17.1623 37.5838 17.4084C37.4864 17.6546 37.3378 17.8774 37.1479 18.0621C36.9581 18.2467 36.7313 18.3891 36.4824 18.4799C36.2335 18.5707 35.9682 18.6078 35.7039 18.5887C34.6259 18.5887 34.0758 18.1986 33.9294 17.5824ZM35.4377 9.57185C36.8751 9.57185 37.7624 10.5915 37.7624 12.0056C37.7624 13.4153 36.8041 14.4394 35.4377 14.4394C34.0713 14.4394 33.1841 13.4198 33.1841 12.0056C33.1841 10.5915 34.0004 9.57185 35.4377 9.57185Z" fill="#222222"/>
<path d="M45.9919 16.8377H43.1038V3.21481H45.9919V16.8377Z" fill="#222222"/>
<path fill-rule="evenodd" clip-rule="evenodd" d="M52.957 7.10704C50.0511 7.10704 48.006 9.19946 48.006 12.0854C48.006 14.9891 50.0511 17.0771 52.9703 17.0638C55.2772 17.0638 57.1405 15.8181 57.6285 14.0005H54.7227C54.4565 14.4527 53.7777 14.7453 52.9481 14.7453C52.4482 14.7665 51.9584 14.6005 51.5744 14.28C51.1904 13.9594 50.9399 13.5073 50.8719 13.0119H57.8414C57.8855 12.705 57.9078 12.3954 57.908 12.0854C57.908 9.18173 55.8628 7.10704 52.957 7.10704ZM54.386 9.85286C54.7801 10.1777 55.0367 10.6395 55.1042 11.1456H50.8719C50.9321 10.6397 51.1842 10.1761 51.5762 9.85034C51.9683 9.52458 52.4704 9.36144 52.9792 9.39451C53.4892 9.36429 53.9918 9.52804 54.386 9.85286Z" fill="#222222"/>
<path d="M68.817 7.32428L63.347 20.7964H60.5077L62.229 16.5806L58.4758 7.32428H61.6745L63.7374 13.2025L65.8136 7.32428H68.817Z" fill="#222222"/>
</svg>
